<?xml version="1.0" encoding="UTF-8" standalone="no"?>
<!-- Generator: Adobe Illustrator 18.0.0, SVG Export Plug-In . SVG Version: 6.00 Build 0)  -->

<svg
   xmlns:dc="http://purl.org/dc/elements/1.1/"
   xmlns:cc="http://creativecommons.org/ns#"
   xmlns:rdf="http://www.w3.org/1999/02/22-rdf-syntax-ns#"
   xmlns:svg="http://www.w3.org/2000/svg"
   xmlns="http://www.w3.org/2000/svg"
   xmlns:sodipodi="http://sodipodi.sourceforge.net/DTD/sodipodi-0.dtd"
   xmlns:inkscape="http://www.inkscape.org/namespaces/inkscape"
   version="1.1"
   id="Capa_1"
   x="0px"
   y="0px"
   viewBox="0 0 16.000001 16.000001"
   xml:space="preserve"
   sodipodi:docname="navmobile-close.svg"
   inkscape:version="0.92.4 (5da689c313, 2019-01-14)"
   width="16"
   height="16"><metadata
   id="metadata43"><rdf:RDF><cc:Work
       rdf:about=""><dc:format>image/svg+xml</dc:format><dc:type
         rdf:resource="http://purl.org/dc/dcmitype/StillImage" /><dc:title></dc:title></cc:Work></rdf:RDF></metadata><defs
   id="defs41" /><sodipodi:namedview
   pagecolor="#ffffff"
   bordercolor="#666666"
   borderopacity="1"
   objecttolerance="10"
   gridtolerance="10"
   guidetolerance="10"
   inkscape:pageopacity="0"
   inkscape:pageshadow="2"
   inkscape:window-width="1920"
   inkscape:window-height="1013"
   id="namedview39"
   showgrid="false"
   inkscape:zoom="24.366972"
   inkscape:cx="3.8125625"
   inkscape:cy="6.4328641"
   inkscape:window-x="-9"
   inkscape:window-y="-9"
   inkscape:window-maximized="1"
   inkscape:current-layer="Capa_1"
   inkscape:pagecheckerboard="true"
   inkscape:snap-page="true" />
<g
   id="g6"
   style="fill:#ffffff;stroke-width:13.69699192;fill-opacity:0.58823532"
   transform="scale(0.07300874)">
	
	<path
   d="m 53.235,165.917 c 1.464,1.464 3.384,2.196 5.303,2.196 1.919,0 3.839,-0.732 5.303,-2.196 l 45.735,-45.733 45.733,45.733 c 1.465,1.464 3.384,2.196 5.304,2.196 1.919,0 3.839,-0.732 5.304,-2.196 2.929,-2.93 2.929,-7.678 0,-10.607 l -45.732,-45.733 45.734,-45.733 c 2.929,-2.93 2.929,-7.678 0,-10.607 -2.93,-2.928 -7.678,-2.928 -10.607,0 L 109.578,98.97 63.842,53.233 c -2.929,-2.928 -7.678,-2.928 -10.606,0 -2.929,2.93 -2.929,7.678 0,10.607 L 98.97,109.575 53.235,155.31 c -2.929,2.929 -2.929,7.677 0,10.607 z"
   id="path4"
   style="fill:#ffffff;stroke-width:13.69699192;fill-opacity:0.58823532"
   inkscape:connector-curvature="0" />
</g>
<g
   id="g8"
   transform="scale(0.07300874)"
   style="stroke-width:13.69699192">
</g>
<g
   id="g10"
   transform="scale(0.07300874)"
   style="stroke-width:13.69699192">
</g>
<g
   id="g12"
   transform="scale(0.07300874)"
   style="stroke-width:13.69699192">
</g>
<g
   id="g14"
   transform="scale(0.07300874)"
   style="stroke-width:13.69699192">
</g>
<g
   id="g16"
   transform="scale(0.07300874)"
   style="stroke-width:13.69699192">
</g>
<g
   id="g18"
   transform="scale(0.07300874)"
   style="stroke-width:13.69699192">
</g>
<g
   id="g20"
   transform="scale(0.07300874)"
   style="stroke-width:13.69699192">
</g>
<g
   id="g22"
   transform="scale(0.07300874)"
   style="stroke-width:13.69699192">
</g>
<g
   id="g24"
   transform="scale(0.07300874)"
   style="stroke-width:13.69699192">
</g>
<g
   id="g26"
   transform="scale(0.07300874)"
   style="stroke-width:13.69699192">
</g>
<g
   id="g28"
   transform="scale(0.07300874)"
   style="stroke-width:13.69699192">
</g>
<g
   id="g30"
   transform="scale(0.07300874)"
   style="stroke-width:13.69699192">
</g>
<g
   id="g32"
   transform="scale(0.07300874)"
   style="stroke-width:13.69699192">
</g>
<g
   id="g34"
   transform="scale(0.07300874)"
   style="stroke-width:13.69699192">
</g>
<g
   id="g36"
   transform="scale(0.07300874)"
   style="stroke-width:13.69699192">
</g>
</svg>